<?xml version="1.0" encoding="UTF-8"?>
<svg id="_レイヤー_1" data-name="レイヤー 1" xmlns="http://www.w3.org/2000/svg" viewBox="0 0 2000 1000">
  <g>
    <rect x="692.05" y="179.21" width="44.63" height="21.81"/>
    <path d="M736.18,179.71v20.81h-43.63v-20.81h43.63M737.18,178.71h-45.63v22.81h45.63v-22.81h0Z"/>
  </g>
  <g>
    <rect x="692.05" y="224.84" width="44.63" height="21.81"/>
    <path d="M736.18,225.34v20.81h-43.63v-20.81h43.63M737.18,224.34h-45.63v22.81h45.63v-22.81h0Z"/>
  </g>
  <g>
    <rect x="1330.81" y="202.03" width="44.63" height="21.81"/>
    <path d="M1374.94,202.53v20.81h-43.63v-20.81h43.63M1375.94,201.53h-45.63v22.81h45.63v-22.81h0Z"/>
  </g>
  <g>
    <rect x="692.05" y="452.97" width="44.63" height="21.81"/>
    <path d="M736.18,453.47v20.81h-43.63v-20.81h43.63M737.18,452.47h-45.63v22.81h45.63v-22.81h0Z"/>
  </g>
  <g>
    <rect x="692.05" y="498.59" width="44.63" height="21.81"/>
    <path d="M736.18,499.09v20.81h-43.63v-20.81h43.63M737.18,498.09h-45.63v22.81h45.63v-22.81h0Z"/>
  </g>
  <g>
    <rect x="1330.81" y="475.78" width="44.63" height="21.81"/>
    <path d="M1374.94,476.28v20.81h-43.63v-20.81h43.63M1375.94,475.28h-45.63v22.81h45.63v-22.81h0Z"/>
  </g>
  <g>
    <rect x="692.05" y="726.72" width="44.63" height="21.81"/>
    <path d="M736.18,727.22v20.81h-43.63v-20.81h43.63M737.18,726.22h-45.63v22.81h45.63v-22.81h0Z"/>
  </g>
  <g>
    <rect x="692.05" y="772.35" width="44.63" height="21.81"/>
    <path d="M736.18,772.85v20.81h-43.63v-20.81h43.63M737.18,771.85h-45.63v22.81h45.63v-22.81h0Z"/>
  </g>
  <g>
    <rect x="1330.81" y="749.54" width="44.63" height="21.81"/>
    <path d="M1374.94,750.04v20.81h-43.63v-20.81h43.63M1375.94,749.04h-45.63v22.81h45.63v-22.81h0Z"/>
  </g>
  <g>
    <g>
      <g>
        <rect x="692.05" y="133.59" width="683.39" height="21.81"/>
        <path d="M1374.94,134.09v20.81h-682.39v-20.81h682.39M1375.94,133.09h-684.39v22.81h684.39v-22.81h0Z"/>
      </g>
      <g>
        <rect x="783.3" y="179.21" width="44.62" height="21.81"/>
        <path d="M827.43,179.71v20.81h-43.63v-20.81h43.63M828.43,178.71h-45.63v22.81h45.63v-22.81h0Z"/>
      </g>
      <g>
        <rect x="920.18" y="179.21" width="44.63" height="21.81"/>
        <path d="M964.3,179.71v20.81h-43.63v-20.81h43.63M965.3,178.71h-45.63v22.81h45.63v-22.81h0Z"/>
      </g>
      <g>
        <rect x="1057.06" y="179.21" width="44.63" height="21.81"/>
        <path d="M1101.18,179.71v20.81h-43.63v-20.81h43.63M1102.18,178.71h-45.63v22.81h45.63v-22.81h0Z"/>
      </g>
      <g>
        <rect x="737.68" y="202.03" width="44.63" height="21.81"/>
        <path d="M781.8,202.53v20.81h-43.63v-20.81h43.63M782.8,201.53h-45.63v22.81h45.63v-22.81h0Z"/>
      </g>
      <g>
        <rect x="874.55" y="202.03" width="44.63" height="21.81"/>
        <path d="M918.68,202.53v20.81h-43.63v-20.81h43.63M919.68,201.53h-45.63v22.81h45.63v-22.81h0Z"/>
      </g>
      <g>
        <rect x="965.8" y="202.03" width="44.63" height="21.81"/>
        <path d="M1009.93,202.53v20.81h-43.63v-20.81h43.63M1010.93,201.53h-45.63v22.81h45.63v-22.81h0Z"/>
      </g>
      <g>
        <rect x="1102.68" y="202.03" width="44.63" height="21.81"/>
        <path d="M1146.81,202.53v20.81h-43.63v-20.81h43.63M1147.81,201.53h-45.63v22.81h45.63v-22.81h0Z"/>
      </g>
      <g>
        <rect x="692.05" y="270.46" width="683.39" height="21.81"/>
        <path d="M1374.94,270.96v20.81h-682.39v-20.81h682.39M1375.94,269.96h-684.39v22.81h684.39v-22.81h0Z"/>
      </g>
      <g>
        <rect x="783.3" y="224.84" width="44.62" height="21.81"/>
        <path d="M827.43,225.34v20.81h-43.63v-20.81h43.63M828.43,224.34h-45.63v22.81h45.63v-22.81h0Z"/>
      </g>
      <g>
        <rect x="920.18" y="224.84" width="44.63" height="21.81"/>
        <path d="M964.3,225.34v20.81h-43.63v-20.81h43.63M965.3,224.34h-45.63v22.81h45.63v-22.81h0Z"/>
      </g>
      <g>
        <rect x="1057.06" y="224.84" width="44.63" height="21.81"/>
        <path d="M1101.18,225.34v20.81h-43.63v-20.81h43.63M1102.18,224.34h-45.63v22.81h45.63v-22.81h0Z"/>
      </g>
      <g>
        <rect x="1148.31" y="179.21" width="44.63" height="21.81"/>
        <path d="M1192.43,179.71v20.81h-43.63v-20.81h43.63M1193.43,178.71h-45.63v22.81h45.63v-22.81h0Z"/>
      </g>
      <g>
        <rect x="1285.18" y="179.21" width="44.63" height="21.81"/>
        <path d="M1329.31,179.71v20.81h-43.63v-20.81h43.63M1330.31,178.71h-45.63v22.81h45.63v-22.81h0Z"/>
      </g>
      <g>
        <rect x="1239.56" y="202.03" width="44.63" height="21.81"/>
        <path d="M1283.68,202.53v20.81h-43.63v-20.81h43.63M1284.68,201.53h-45.63v22.81h45.63v-22.81h0Z"/>
      </g>
      <g>
        <rect x="1148.31" y="224.84" width="44.63" height="21.81"/>
        <path d="M1192.43,225.34v20.81h-43.63v-20.81h43.63M1193.43,224.34h-45.63v22.81h45.63v-22.81h0Z"/>
      </g>
      <g>
        <rect x="1285.18" y="224.84" width="44.63" height="21.81"/>
        <path d="M1329.31,225.34v20.81h-43.63v-20.81h43.63M1330.31,224.34h-45.63v22.81h45.63v-22.81h0Z"/>
      </g>
    </g>
    <g>
      <g>
        <rect x="692.05" y="407.34" width="683.39" height="21.81"/>
        <path d="M1374.94,407.84v20.81h-682.39v-20.81h682.39M1375.94,406.84h-684.39v22.81h684.39v-22.81h0Z"/>
      </g>
      <g>
        <rect x="783.3" y="452.97" width="44.62" height="21.81"/>
        <path d="M827.43,453.47v20.81h-43.63v-20.81h43.63M828.43,452.47h-45.63v22.81h45.63v-22.81h0Z"/>
      </g>
      <g>
        <rect x="920.18" y="452.97" width="44.63" height="21.81"/>
        <path d="M964.3,453.47v20.81h-43.63v-20.81h43.63M965.3,452.47h-45.63v22.81h45.63v-22.81h0Z"/>
      </g>
      <g>
        <rect x="1057.06" y="452.97" width="44.63" height="21.81"/>
        <path d="M1101.18,453.47v20.81h-43.63v-20.81h43.63M1102.18,452.47h-45.63v22.81h45.63v-22.81h0Z"/>
      </g>
      <g>
        <rect x="737.68" y="475.78" width="44.63" height="21.81"/>
        <path d="M781.8,476.28v20.81h-43.63v-20.81h43.63M782.8,475.28h-45.63v22.81h45.63v-22.81h0Z"/>
      </g>
      <g>
        <rect x="874.55" y="475.78" width="44.63" height="21.81"/>
        <path d="M918.68,476.28v20.81h-43.63v-20.81h43.63M919.68,475.28h-45.63v22.81h45.63v-22.81h0Z"/>
      </g>
      <g>
        <rect x="965.8" y="475.78" width="44.63" height="21.81"/>
        <path d="M1009.93,476.28v20.81h-43.63v-20.81h43.63M1010.93,475.28h-45.63v22.81h45.63v-22.81h0Z"/>
      </g>
      <g>
        <rect x="1102.68" y="475.78" width="44.63" height="21.81"/>
        <path d="M1146.81,476.28v20.81h-43.63v-20.81h43.63M1147.81,475.28h-45.63v22.81h45.63v-22.81h0Z"/>
      </g>
      <g>
        <rect x="692.05" y="544.22" width="683.39" height="21.81"/>
        <path d="M1374.94,544.72v20.81h-682.39v-20.81h682.39M1375.94,543.72h-684.39v22.81h684.39v-22.81h0Z"/>
      </g>
      <g>
        <rect x="783.3" y="498.59" width="44.62" height="21.81"/>
        <path d="M827.43,499.09v20.81h-43.63v-20.81h43.63M828.43,498.09h-45.63v22.81h45.63v-22.81h0Z"/>
      </g>
      <g>
        <rect x="920.18" y="498.59" width="44.63" height="21.81"/>
        <path d="M964.3,499.09v20.81h-43.63v-20.81h43.63M965.3,498.09h-45.63v22.81h45.63v-22.81h0Z"/>
      </g>
      <g>
        <rect x="1057.06" y="498.59" width="44.63" height="21.81"/>
        <path d="M1101.18,499.09v20.81h-43.63v-20.81h43.63M1102.18,498.09h-45.63v22.81h45.63v-22.81h0Z"/>
      </g>
      <g>
        <rect x="1148.31" y="452.97" width="44.63" height="21.81"/>
        <path d="M1192.43,453.47v20.81h-43.63v-20.81h43.63M1193.43,452.47h-45.63v22.81h45.63v-22.81h0Z"/>
      </g>
      <g>
        <rect x="1285.18" y="452.97" width="44.63" height="21.81"/>
        <path d="M1329.31,453.47v20.81h-43.63v-20.81h43.63M1330.31,452.47h-45.63v22.81h45.63v-22.81h0Z"/>
      </g>
      <g>
        <rect x="1239.56" y="475.78" width="44.63" height="21.81"/>
        <path d="M1283.68,476.28v20.81h-43.63v-20.81h43.63M1284.68,475.28h-45.63v22.81h45.63v-22.81h0Z"/>
      </g>
      <g>
        <rect x="1148.31" y="498.59" width="44.63" height="21.81"/>
        <path d="M1192.43,499.09v20.81h-43.63v-20.81h43.63M1193.43,498.09h-45.63v22.81h45.63v-22.81h0Z"/>
      </g>
      <g>
        <rect x="1285.18" y="498.59" width="44.63" height="21.81"/>
        <path d="M1329.31,499.09v20.81h-43.63v-20.81h43.63M1330.31,498.09h-45.63v22.81h45.63v-22.81h0Z"/>
      </g>
    </g>
    <g>
      <g>
        <rect x="692.05" y="681.1" width="683.39" height="21.81"/>
        <path d="M1374.94,681.6v20.81h-682.39v-20.81h682.39M1375.94,680.6h-684.39v22.81h684.39v-22.81h0Z"/>
      </g>
      <g>
        <rect x="783.3" y="726.72" width="44.62" height="21.81"/>
        <path d="M827.43,727.22v20.81h-43.63v-20.81h43.63M828.43,726.22h-45.63v22.81h45.63v-22.81h0Z"/>
      </g>
      <g>
        <rect x="920.18" y="726.72" width="44.63" height="21.81"/>
        <path d="M964.3,727.22v20.81h-43.63v-20.81h43.63M965.3,726.22h-45.63v22.81h45.63v-22.81h0Z"/>
      </g>
      <g>
        <rect x="1057.06" y="726.72" width="44.63" height="21.81"/>
        <path d="M1101.18,727.22v20.81h-43.63v-20.81h43.63M1102.18,726.22h-45.63v22.81h45.63v-22.81h0Z"/>
      </g>
      <g>
        <rect x="737.68" y="749.54" width="44.63" height="21.81"/>
        <path d="M781.8,750.04v20.81h-43.63v-20.81h43.63M782.8,749.04h-45.63v22.81h45.63v-22.81h0Z"/>
      </g>
      <g>
        <rect x="874.55" y="749.54" width="44.63" height="21.81"/>
        <path d="M918.68,750.04v20.81h-43.63v-20.81h43.63M919.68,749.04h-45.63v22.81h45.63v-22.81h0Z"/>
      </g>
      <g>
        <rect x="965.8" y="749.54" width="44.63" height="21.81"/>
        <path d="M1009.93,750.04v20.81h-43.63v-20.81h43.63M1010.93,749.04h-45.63v22.81h45.63v-22.81h0Z"/>
      </g>
      <g>
        <rect x="1102.68" y="749.54" width="44.63" height="21.81"/>
        <path d="M1146.81,750.04v20.81h-43.63v-20.81h43.63M1147.81,749.04h-45.63v22.81h45.63v-22.81h0Z"/>
      </g>
      <g>
        <rect x="692.05" y="817.97" width="683.39" height="21.81"/>
        <path d="M1374.94,818.47v20.81h-682.39v-20.81h682.39M1375.94,817.47h-684.39v22.81h684.39v-22.81h0Z"/>
      </g>
      <g>
        <rect x="783.3" y="772.35" width="44.62" height="21.81"/>
        <path d="M827.43,772.85v20.81h-43.63v-20.81h43.63M828.43,771.85h-45.63v22.81h45.63v-22.81h0Z"/>
      </g>
      <g>
        <rect x="920.18" y="772.35" width="44.63" height="21.81"/>
        <path d="M964.3,772.85v20.81h-43.63v-20.81h43.63M965.3,771.85h-45.63v22.81h45.63v-22.81h0Z"/>
      </g>
      <g>
        <rect x="1057.06" y="772.35" width="44.63" height="21.81"/>
        <path d="M1101.18,772.85v20.81h-43.63v-20.81h43.63M1102.18,771.85h-45.63v22.81h45.63v-22.81h0Z"/>
      </g>
      <g>
        <rect x="1148.31" y="726.72" width="44.63" height="21.81"/>
        <path d="M1192.43,727.22v20.81h-43.63v-20.81h43.63M1193.43,726.22h-45.63v22.81h45.63v-22.81h0Z"/>
      </g>
      <g>
        <rect x="1285.18" y="726.72" width="44.63" height="21.81"/>
        <path d="M1329.31,727.22v20.81h-43.63v-20.81h43.63M1330.31,726.22h-45.63v22.81h45.63v-22.81h0Z"/>
      </g>
      <g>
        <rect x="1239.56" y="749.54" width="44.63" height="21.81"/>
        <path d="M1283.68,750.04v20.81h-43.63v-20.81h43.63M1284.68,749.04h-45.63v22.81h45.63v-22.81h0Z"/>
      </g>
      <g>
        <rect x="1148.31" y="772.35" width="44.63" height="21.81"/>
        <path d="M1192.43,772.85v20.81h-43.63v-20.81h43.63M1193.43,771.85h-45.63v22.81h45.63v-22.81h0Z"/>
      </g>
      <g>
        <rect x="1285.18" y="772.35" width="44.63" height="21.81"/>
        <path d="M1329.31,772.85v20.81h-43.63v-20.81h43.63M1330.31,771.85h-45.63v22.81h45.63v-22.81h0Z"/>
      </g>
    </g>
  </g>
</svg>