<?xml version="1.0" encoding="UTF-8"?>
<svg id="_レイヤー_2" data-name="レイヤー 2" xmlns="http://www.w3.org/2000/svg" viewBox="0 0 685 685">
  <defs>
    <style>
      .cls-1 {
        font-family: KozGoPr6N-Bold-90ms-RKSJ-H, 'Kozuka Gothic Pr6N';
        font-size: 119.97px;
        font-weight: 700;
      }
    </style>
  </defs>
  <g id="_レイヤー_1-2" data-name="レイヤー 1">
    <g>
      <g>
        <rect x=".5" y="571.47" width="44.67" height="21.81"/>
        <path d="M44.67,571.97v20.81H1v-20.81h43.67M45.67,570.97H0v22.81h45.67v-22.81h0Z"/>
      </g>
      <g>
        <rect x=".5" y="617.08" width="44.67" height="21.81"/>
        <path d="M44.67,617.58v20.81H1v-20.81h43.67M45.67,616.58H0v22.81h45.67v-22.81h0Z"/>
      </g>
      <g>
        <rect x="639.83" y="594.27" width="44.67" height="21.81"/>
        <path d="M684,594.77v20.81h-43.67v-20.81h43.67M685,593.77h-45.67v22.81h45.67v-22.81h0Z"/>
      </g>
      <g>
        <rect x="183.17" y="46.11" width="44.67" height="21.81"/>
        <path d="M227.33,46.61v20.81h-43.67v-20.81h43.67M228.33,45.61h-45.67v22.81h45.67v-22.81h0Z"/>
      </g>
      <g>
        <rect x="183.17" y="91.73" width="44.67" height="21.81"/>
        <path d="M227.33,92.23v20.81h-43.67v-20.81h43.67M228.33,91.23h-45.67v22.81h45.67v-22.81h0Z"/>
      </g>
      <g>
        <rect x=".5" y=".5" width="684" height="21.81"/>
        <path d="M684,1v20.81H1V1h683M685,0H0v22.81h685V0h0Z"/>
      </g>
      <g>
        <rect x="91.83" y="571.47" width="44.67" height="21.81"/>
        <path d="M136,571.97v20.81h-43.67v-20.81h43.67M137,570.97h-45.67v22.81h45.67v-22.81h0Z"/>
      </g>
      <g>
        <rect x="228.83" y="571.47" width="44.67" height="21.81"/>
        <path d="M273,571.97v20.81h-43.67v-20.81h43.67M274,570.97h-45.67v22.81h45.67v-22.81h0Z"/>
      </g>
      <g>
        <rect x="365.83" y="571.47" width="44.67" height="21.81"/>
        <path d="M410,571.97v20.81h-43.67v-20.81h43.67M411,570.97h-45.67v22.81h45.67v-22.81h0Z"/>
      </g>
      <g>
        <rect x="46.17" y="594.27" width="44.67" height="21.81"/>
        <path d="M90.33,594.77v20.81h-43.67v-20.81h43.67M91.33,593.77h-45.67v22.81h45.67v-22.81h0Z"/>
      </g>
      <g>
        <rect x="183.17" y="594.27" width="44.67" height="21.81"/>
        <path d="M227.33,594.77v20.81h-43.67v-20.81h43.67M228.33,593.77h-45.67v22.81h45.67v-22.81h0Z"/>
      </g>
      <g>
        <rect x="274.5" y="594.27" width="44.67" height="21.81"/>
        <path d="M318.67,594.77v20.81h-43.67v-20.81h43.67M319.67,593.77h-45.67v22.81h45.67v-22.81h0Z"/>
      </g>
      <g>
        <rect x="411.5" y="594.27" width="44.67" height="21.81"/>
        <path d="M455.67,594.77v20.81h-43.67v-20.81h43.67M456.67,593.77h-45.67v22.81h45.67v-22.81h0Z"/>
      </g>
      <g>
        <rect x=".5" y="137.34" width="684" height="21.81"/>
        <path d="M684,137.84v20.81H1v-20.81h683M685,136.84H0v22.81h685v-22.81h0Z"/>
      </g>
      <g>
        <rect x="91.83" y="617.08" width="44.67" height="21.81"/>
        <path d="M136,617.58v20.81h-43.67v-20.81h43.67M137,616.58h-45.67v22.81h45.67v-22.81h0Z"/>
      </g>
      <g>
        <rect x="228.83" y="617.08" width="44.67" height="21.81"/>
        <path d="M273,617.58v20.81h-43.67v-20.81h43.67M274,616.58h-45.67v22.81h45.67v-22.81h0Z"/>
      </g>
      <g>
        <rect x="365.83" y="617.08" width="44.67" height="21.81"/>
        <path d="M410,617.58v20.81h-43.67v-20.81h43.67M411,616.58h-45.67v22.81h45.67v-22.81h0Z"/>
      </g>
      <g>
        <rect x="457.17" y="571.47" width="44.67" height="21.81"/>
        <path d="M501.33,571.97v20.81h-43.67v-20.81h43.67M502.33,570.97h-45.67v22.81h45.67v-22.81h0Z"/>
      </g>
      <g>
        <rect x="594.17" y="571.47" width="44.67" height="21.81"/>
        <path d="M638.33,571.97v20.81h-43.67v-20.81h43.67M639.33,570.97h-45.67v22.81h45.67v-22.81h0Z"/>
      </g>
      <g>
        <rect x="548.5" y="594.27" width="44.67" height="21.81"/>
        <path d="M592.67,594.77v20.81h-43.67v-20.81h43.67M593.67,593.77h-45.67v22.81h45.67v-22.81h0Z"/>
      </g>
      <g>
        <rect x="457.17" y="617.08" width="44.67" height="21.81"/>
        <path d="M501.33,617.58v20.81h-43.67v-20.81h43.67M502.33,616.58h-45.67v22.81h45.67v-22.81h0Z"/>
      </g>
      <g>
        <rect x="594.17" y="617.08" width="44.67" height="21.81"/>
        <path d="M638.33,617.58v20.81h-43.67v-20.81h43.67M639.33,616.58h-45.67v22.81h45.67v-22.81h0Z"/>
      </g>
      <g>
        <rect x=".5" y="263.18" width="684" height="21.81"/>
        <path d="M684,263.68v20.81H1v-20.81h683M685,262.68H0v22.81h685v-22.81h0Z"/>
      </g>
      <g>
        <rect x=".5" y="400.02" width="684" height="21.81"/>
        <path d="M684,400.52v20.81H1v-20.81h683M685,399.52H0v22.81h685v-22.81h0Z"/>
      </g>
      <g>
        <rect x=".5" y="525.86" width="684" height="21.81"/>
        <path d="M684,526.36v20.81H1v-20.81h683M685,525.36H0v22.81h685v-22.81h0Z"/>
      </g>
      <g>
        <rect x="274.5" y="46.11" width="44.67" height="21.81"/>
        <path d="M318.67,46.61v20.81h-43.67v-20.81h43.67M319.67,45.61h-45.67v22.81h45.67v-22.81h0Z"/>
      </g>
      <g>
        <rect x="411.5" y="46.11" width="44.67" height="21.81"/>
        <path d="M455.67,46.61v20.81h-43.67v-20.81h43.67M456.67,45.61h-45.67v22.81h45.67v-22.81h0Z"/>
      </g>
      <g>
        <rect x="548.5" y="46.11" width="44.67" height="21.81"/>
        <path d="M592.67,46.61v20.81h-43.67v-20.81h43.67M593.67,45.61h-45.67v22.81h45.67v-22.81h0Z"/>
      </g>
      <g>
        <rect x="228.83" y="68.92" width="44.67" height="21.81"/>
        <path d="M273,69.42v20.81h-43.67v-20.81h43.67M274,68.42h-45.67v22.81h45.67v-22.81h0Z"/>
      </g>
      <g>
        <rect x="365.83" y="68.92" width="44.67" height="21.81"/>
        <path d="M410,69.42v20.81h-43.67v-20.81h43.67M411,68.42h-45.67v22.81h45.67v-22.81h0Z"/>
      </g>
      <g>
        <rect x="457.17" y="68.92" width="44.67" height="21.81"/>
        <path d="M501.33,69.42v20.81h-43.67v-20.81h43.67M502.33,68.42h-45.67v22.81h45.67v-22.81h0Z"/>
      </g>
      <g>
        <rect x="594.17" y="68.92" width="44.67" height="21.81"/>
        <path d="M638.33,69.42v20.81h-43.67v-20.81h43.67M639.33,68.42h-45.67v22.81h45.67v-22.81h0Z"/>
      </g>
      <g>
        <rect x=".5" y="662.69" width="684" height="21.81"/>
        <path d="M684,663.19v20.81H1v-20.81h683M685,662.19H0v22.81h685v-22.81h0Z"/>
      </g>
      <g>
        <rect x="274.5" y="91.73" width="44.67" height="21.81"/>
        <path d="M318.67,92.23v20.81h-43.67v-20.81h43.67M319.67,91.23h-45.67v22.81h45.67v-22.81h0Z"/>
      </g>
      <g>
        <rect x="411.5" y="91.73" width="44.67" height="21.81"/>
        <path d="M455.67,92.23v20.81h-43.67v-20.81h43.67M456.67,91.23h-45.67v22.81h45.67v-22.81h0Z"/>
      </g>
      <g>
        <rect x="548.5" y="91.73" width="44.67" height="21.81"/>
        <path d="M592.67,92.23v20.81h-43.67v-20.81h43.67M593.67,91.23h-45.67v22.81h45.67v-22.81h0Z"/>
      </g>
      <g>
        <rect x="639.83" y="46.11" width="44.67" height="21.81"/>
        <path d="M684,46.61v20.81h-43.67v-20.81h43.67M685,45.61h-45.67v22.81h45.67v-22.81h0Z"/>
      </g>
      <g>
        <rect x="639.83" y="91.73" width="44.67" height="21.81"/>
        <path d="M684,92.23v20.81h-43.67v-20.81h43.67M685,91.23h-45.67v22.81h45.67v-22.81h0Z"/>
      </g>
      <text class="cls-1" transform="translate(175.79 391.06)"><tspan x="0" y="0">CLOSE</tspan></text>
      <g>
        <rect x="91.83" y="68.92" width="44.67" height="21.81"/>
        <path d="M136,69.42v20.81h-43.67v-20.81h43.67M137,68.42h-45.67v22.81h45.67v-22.81h0Z"/>
      </g>
      <g>
        <rect x="46.17" y="46.11" width="44.67" height="21.81"/>
        <path d="M90.33,46.61v20.81h-43.67v-20.81h43.67M91.33,45.61h-45.67v22.81h45.67v-22.81h0Z"/>
      </g>
      <g>
        <rect x=".5" y="68.92" width="44.67" height="21.81"/>
        <path d="M44.67,69.42v20.81H1v-20.81h43.67M45.67,68.42H0v22.81h45.67v-22.81h0Z"/>
      </g>
      <g>
        <rect x="46.17" y="91.73" width="44.67" height="21.81"/>
        <path d="M90.33,92.23v20.81h-43.67v-20.81h43.67M91.33,91.23h-45.67v22.81h45.67v-22.81h0Z"/>
      </g>
    </g>
  </g>
</svg>